PathFileType	4	(X/Y/Z)	Patient4_TMGait_0pt4_03_right_35.trc.trc
DataRate	CameraRate	NumFrames	NumMarkers	Units	OrigDataRate	OrigDataStartFrame	OrigNumFrames
74.468085106383	74.468085106383	6	33	mm	74.468085106383	89	       141
Frame#	Time	Sacral			L.Shoulder			Chest			R.Shoulder			Neck			R.ASIS			L.ASIS			R.Thigh.Superior			R.Thigh.Lateral			R.Thigh.Inferior			R.Patella			L.Thigh.Superior			L.Thigh.Lateral			L.Thigh.Inferior			L.Patella			L.Shank.Superior			L.Shank.Lateral			L.Shank.Inferior			R.Shank.Superior			R.Shank.Lateral			R.Shank.Inferior			R.Heel			R.Midfoot.Superior			R.Midfoot.Lateral			R.Toe			L.Heel			L.Midfoot.Lateral			L.Midfoot.Superior			L.Toe			L.Elbow			L.Wrist			R.Elbow			R.Wrist			
		X1	Y1	Z1	X2	Y2	Z2	X3	Y3	Z3	X4	Y4	Z4	X5	Y5	Z5	X6	Y6	Z6	X7	Y7	Z7	X8	Y8	Z8	X9	Y9	Z9	X10	Y10	Z10	X11	Y11	Z11	X12	Y12	Z12	X13	Y13	Z13	X14	Y14	Z14	X15	Y15	Z15	X16	Y16	Z16	X17	Y17	Z17	X18	Y18	Z18	X19	Y19	Z19	X20	Y20	Z20	X21	Y21	Z21	X22	Y22	Z22	X23	Y23	Z23	X24	Y24	Z24	X25	Y25	Z25	X26	Y26	Z26	X27	Y27	Z27	X28	Y28	Z28	X29	Y29	Z29	X30	Y30	Z30	X31	Y31	Z31	X32	Y32	Z32	X33	Y33	Z33	

89	46.831714285714	870.000564891729	1004.605431320428	461.255165272700	1009.273847493014	1431.450068958047	251.197865191362	1137.543253766746	1370.778893932342	396.110305678743	1078.783378257369	1445.406698039239	579.463633336009	1016.728692114014	1495.900571733371	405.551641251503	1109.784520252169	942.211434222178	549.636673728306	1065.788104789974	962.982031605111	279.477901233690	1133.353009061392	733.178383721511	529.586296672706	1052.467788349775	628.707556427663	603.897569853101	1122.595359326881	566.057243018885	525.319203366009	1113.648825077333	462.575773495009	547.410945748061	1133.207265322399	762.022464406569	302.975586139919	1052.075674507486	637.415099001700	248.707603182516	1150.558750919551	568.704038946295	301.016199286651	1158.694321824150	498.943790067870	308.151994820924	1134.789582907647	425.054212350279	302.091817443243	1047.192487332646	306.222126245812	258.225194169947	1111.500174355625	196.683303524193	321.495296386196	1044.931036994322	391.187020879930	557.657630697465	935.314188268141	334.963727162663	625.802864439976	930.586361626834	226.452226514707	572.997041230524	738.722998156836	125.233498450388	555.517377899494	914.808656222456	108.572892514957	585.807048541467	813.142418482011	82.784162732508	626.497938464977	1007.077819327167	34.789682104692	610.568292366670	996.379783205669	38.671471284747	372.851671759568	1064.167253111510	35.548567345212	286.992207873494	1149.110487042212	97.579279915782	308.255106270689	1275.484929290685	45.108518917613	270.601339653614	956.495741559602	1079.324598532609	142.878494967363	1071.918324736268	843.689199685671	118.860426950310	1155.077362549711	1108.979792648327	707.292963032623	1338.616338539887	926.641936056248	673.042893495360	
90	46.845142857143	869.625360575385	1004.873576805884	457.613626518242	1010.882180489696	1431.821863709668	247.476660747564	1138.058804355796	1370.991845644509	393.280501980311	1078.137747898992	1445.692683404028	576.248240762070	1017.405746735831	1496.265535524967	401.813068077496	1109.020002968671	942.718052184627	546.589146077858	1065.956957677977	963.369346166190	276.449598588729	1138.279766885630	735.458173377227	526.696324345762	1060.741408376925	629.234366108763	601.575368695099	1133.067575495588	567.859397494345	523.329648260427	1125.464648576962	463.024226603685	546.327774198623	1131.637530788308	761.194197400663	298.969955202498	1048.667143963709	637.425315000224	245.908248597423	1146.601294618368	567.931782037068	297.952424894495	1154.074115664705	498.364771377775	305.477126002566	1130.173573636997	424.620930356417	299.824881826035	1042.273428318189	305.769959994591	256.391161543646	1106.337003866820	196.439630259501	320.436378429397	1054.697260869079	392.371633661496	556.529371102762	942.940687360542	340.206059962668	624.475929892366	935.286726956149	231.455833187331	572.720472168626	740.327213967835	138.674546976965	555.377480780682	915.252150603652	112.364182753214	585.593109296897	812.237859003941	92.240420656193	626.274074291860	1002.495275355876	33.919308657079	610.531447678718	990.987663850648	38.666472453879	372.772961103298	1058.731389356721	35.433715820778	286.832570482817	1143.736449730983	97.398277824887	307.995392909827	1270.129593339559	44.801218713460	270.504568519007	962.490193261952	1079.747627891695	136.692461887771	1083.884573929613	847.106097944506	112.499761097607	1146.054092952414	1107.778806930211	705.401893853060	1318.411011200486	913.420601858297	675.598140370176	
91	46.858571428571	869.073887991784	1004.983869773514	454.134157429215	1012.503719011765	1431.993517652189	243.896303749560	1138.518121720977	1371.003079307288	390.657334606968	1077.359054430632	1445.821898229134	573.206613379393	1018.081892606477	1496.489291907037	398.200825396524	1108.155515447095	943.100615712473	543.773718366510	1065.970500321644	963.629984865030	273.610862341248	1143.302967322470	737.977668540737	523.912955209150	1069.213453191294	629.988318747044	599.336542455311	1143.706989035617	570.042687143710	521.394958080598	1137.527559494044	463.949241870281	545.030712928466	1130.013173924328	760.404289752684	295.185577702768	1045.408802732846	637.440099093376	243.183562350563	1142.830703438624	567.216493214050	294.987587988594	1149.657723285797	497.789164770824	302.846275227749	1125.726786242572	424.173743714183	297.604781995525	1037.457497619296	305.350714089050	254.571100326941	1101.244240034943	196.194187383724	319.373990279731	1064.883759022604	393.906620899355	555.194091124317	951.239482096670	345.734863156370	623.063682442815	940.593844589279	236.892941534043	572.251340819840	742.911117899568	152.710606905340	555.109399768541	916.378846763979	116.950310490303	585.336066954479	812.188284044225	102.464331582960	625.935100654812	998.433097059567	33.124629645654	610.434819752284	985.589965983651	38.671720760724	372.672407234093	1053.297409663909	35.329377918508	286.663424605911	1138.367025888718	97.226167931780	307.727510873700	1264.773392465707	44.502641374308	270.407191390042	968.677507110563	1080.083083101071	130.536251938831	1095.795782137032	850.493988312218	106.191502628536	1136.071065178285	1106.502650093196	703.646733942418	1297.069305580831	901.583656592109	678.117442594408	
92	46.872000000000	868.355450472473	1004.970131307646	450.825713084235	1014.101312987704	1431.990840670623	240.485873950489	1138.900361922926	1370.854692088294	388.259433745748	1076.432624917100	1445.833298493839	570.357285477666	1018.734709858727	1496.599698188505	394.742532122057	1107.222323082551	943.399666286903	541.211266942348	1065.849861201827	963.785404794180	270.980603414033	1148.273205316598	740.743422644134	521.235710497933	1077.676632333329	631.026950120547	597.171060012540	1154.261857753783	572.647716559192	519.493825841531	1149.626852276894	465.396067056737	543.515497883184	1128.379289197064	759.665363084611	291.687195687958	1042.350374289089	637.451681111936	240.601245597032	1139.295460007704	566.551960715514	292.200769506884	1145.505853544045	497.217343326110	300.356398523706	1121.497979657833	423.713112588199	295.509740857722	1032.792637948345	304.979725137892	252.828104683087	1096.249088925649	195.949683365376	318.356096187226	1075.305131208466	395.822672961707	553.662023482485	960.046808601944	351.461515636857	621.568524804353	946.438094322268	242.663828187878	571.583246496937	746.463243092778	166.913305178251	554.717496701516	918.270083099348	122.234959312519	585.023863821050	813.102946416671	113.135141030778	625.476597851903	995.148517030119	32.534825091632	610.225707174025	980.193760795000	38.686133809144	372.548870514060	1047.874506839319	35.239850548748	286.488379890459	1133.007191477782	97.069718946795	307.462479397144	1259.422128325373	44.224301830166	270.309286943298	975.073800928610	1080.348720827168	124.470609834804	1107.594652662915	853.817905622089	99.973767318426	1125.178326428393	1105.250570107588	702.030180799886	1274.797608539965	891.147723428132	680.564438700961	
93	46.885428571429	867.488400179648	1004.884174131167	447.692098047905	1015.650155987113	1431.858743350450	237.267352298321	1139.191224339541	1370.604583197194	386.100001698129	1075.348966158324	1445.781343063088	567.710346840713	1019.343693926901	1496.637435482537	391.460618249095	1106.242645005001	943.669486830437	538.912474607853	1065.623584079362	963.866112657157	268.572015147840	1153.041172251203	743.754432892452	518.660052155603	1085.937585168342	632.394727017267	595.073506101953	1164.498920738525	575.698040354732	517.608269672939	1161.569811475662	467.394317353706	541.804010447488	1126.771016497099	758.980514597210	288.522946143959	1039.511130297295	637.453295268745	238.224434676366	1136.008730426814	565.927806011975	289.664513290697	1141.639875308144	496.650343451141	298.096260894907	1117.500818903731	423.243131962473	293.611116282627	1028.298883608137	304.668936274246	251.222604343836	1091.361890816268	195.710476942299	317.427038357087	1085.793677410424	398.134149382135	551.970759858857	969.201059162397	357.275558986908	620.006721251374	952.773953585112	248.627527300021	570.735205880418	750.961837368237	180.776935482907	554.224503549677	921.032843343841	128.031463893410	584.644509766519	815.097853107388	123.841437958717	624.907451127426	992.954393897943	32.283597931870	609.846876090361	974.801837275078	38.708181784205	372.405645074594	1042.466545901674	35.167963458269	286.312581100326	1127.657899959002	96.933253089219	307.211238165165	1254.077335083622	43.973792890625	270.211816123225	981.681818468107	1080.583095484489	118.560226761806	1119.224433089166	857.063804795587	93.893161155564	1113.459493020017	1104.141169005174	700.538142089774	1251.804716000278	882.113318003543	682.900730746561	
94	46.898857142857	866.497731831485	1004.787773291153	444.731876364326	1017.140416649772	1431.654145044279	234.254782402169	1139.384758513136	1370.317488220594	384.186157300433	1074.106410587588	1445.728039663380	565.267245865290	1019.892826281903	1496.649614620201	388.371778453124	1105.224239543594	943.969204129246	536.877539480049	1065.325058496368	963.906944906671	266.391981472116	1157.470174712992	747.000894594183	516.181601781720	1093.832763171073	634.117933272311	593.046193301656	1174.220301226363	579.195915342009	515.727622258762	1173.189777777858	469.955521710865	539.941278856150	1125.213348510535	758.345747156824	285.726615346010	1036.885902781885	637.442007069177	236.104670089975	1132.952342730858	565.332024870316	287.441585881645	1138.043400227980	496.089963547659	296.140519368376	1113.716946253011	422.771163735834	291.967311848580	1023.971122832403	304.426006429656	249.804731314853	1086.577570009566	195.481943411128	316.623177016591	1096.209462672859	400.834542947494	550.178686016830	978.557175258275	363.044981428321	618.408053023432	959.585745537365	254.604701866960	569.748824253551	756.382802082719	193.752230897433	553.670749610009	924.795963476434	134.076421136258	584.190733919575	818.292327923001	134.111186171707	624.250862861564	992.205735227496	32.478914600157	609.248605272961	969.413394500573	38.736020655236	372.248745798240	1037.073054159246	35.114909382207	286.141378997255	1122.316855109796	96.818855416430	306.983053801146	1248.737388492740	43.755255533703	270.116119304548	988.486387245915	1080.838123153715	112.869055257865	1130.632199402428	860.237203355065	88.003033015867	1101.028963584769	1103.299279517979	699.142610354120	1228.301177867648	874.469346648432	685.084211963904	
